<mxfile host="Electron" agent="Mozilla/5.0 (Windows NT 10.0; Win64; x64) AppleWebKit/537.36 (KHTML, like Gecko) draw.io/25.0.1 Chrome/128.0.6613.186 Electron/32.2.6 Safari/537.36" version="25.0.1">
  <diagram name="仕様リスト" id="-qLrR7ELoWjXT5G0vG4u">
    <mxGraphModel dx="5736" dy="3344" grid="1" gridSize="10" guides="1" tooltips="1" connect="1" arrows="1" fold="1" page="1" pageScale="1" pageWidth="827" pageHeight="1169" math="0" shadow="0">
      <root>
        <mxCell id="0" />
        <mxCell id="1" parent="0" />
        <mxCell id="0ltXDq64eJeHb2nr8vkA-1" value="ーはプライベート&#xa;＝はプロテクト&#xa;＋はパブリック" style="swimlane;startSize=0;swimlaneFillColor=default;verticalAlign=top;align=center;fontSize=16;" parent="1" vertex="1">
          <mxGeometry x="370" y="180" width="200" height="80" as="geometry" />
        </mxCell>
        <mxCell id="wi7i52ta5wSqyBqeH4NU-1" value="依存元&#xa;上位層" style="swimlane;startSize=0;swimlaneFillColor=default;verticalAlign=top;align=center;fontSize=16;" parent="1" vertex="1">
          <mxGeometry x="860" y="159" width="180" height="50" as="geometry" />
        </mxCell>
        <mxCell id="wi7i52ta5wSqyBqeH4NU-2" value="" style="endArrow=classic;html=1;rounded=0;exitX=0.5;exitY=1;exitDx=0;exitDy=0;strokeWidth=8;entryX=0.5;entryY=0;entryDx=0;entryDy=0;" parent="1" source="wi7i52ta5wSqyBqeH4NU-1" target="wi7i52ta5wSqyBqeH4NU-3" edge="1">
          <mxGeometry width="50" height="50" relative="1" as="geometry">
            <mxPoint x="950" y="269" as="sourcePoint" />
            <mxPoint x="950" y="309" as="targetPoint" />
            <Array as="points" />
          </mxGeometry>
        </mxCell>
        <mxCell id="wi7i52ta5wSqyBqeH4NU-3" value="依存元&#xa;下位層" style="swimlane;startSize=0;swimlaneFillColor=default;verticalAlign=top;align=center;fontSize=16;" parent="1" vertex="1">
          <mxGeometry x="860" y="319" width="180" height="50" as="geometry" />
        </mxCell>
        <mxCell id="wi7i52ta5wSqyBqeH4NU-4" value="派生&#xa;上位層" style="swimlane;startSize=0;swimlaneFillColor=default;verticalAlign=top;align=center;fontSize=16;" parent="1" vertex="1">
          <mxGeometry x="634" y="159" width="166" height="50" as="geometry" />
        </mxCell>
        <mxCell id="wi7i52ta5wSqyBqeH4NU-5" value="基底&#xa;下位層" style="swimlane;startSize=0;swimlaneFillColor=default;verticalAlign=top;align=center;fontSize=16;" parent="1" vertex="1">
          <mxGeometry x="634" y="319" width="166" height="50" as="geometry" />
        </mxCell>
        <mxCell id="wi7i52ta5wSqyBqeH4NU-6" value="" style="endArrow=classic;dashed=1;html=1;strokeWidth=8;rounded=0;entryX=0.5;entryY=0;entryDx=0;entryDy=0;startArrow=none;startFill=0;endFill=1;exitX=0.5;exitY=1;exitDx=0;exitDy=0;" parent="1" source="wi7i52ta5wSqyBqeH4NU-4" target="wi7i52ta5wSqyBqeH4NU-5" edge="1">
          <mxGeometry width="50" height="50" relative="1" as="geometry">
            <mxPoint x="707" y="459" as="sourcePoint" />
            <mxPoint x="2395" y="1529" as="targetPoint" />
            <Array as="points" />
          </mxGeometry>
        </mxCell>
        <mxCell id="bb5lSr_9JjfSxzTluUoF-1" value="&lt;p style=&quot;line-height: 100%;&quot;&gt;用語リスト&lt;/p&gt;" style="swimlane;whiteSpace=wrap;html=1;swimlaneFillColor=default;" parent="1" vertex="1">
          <mxGeometry x="1060" y="140" width="560" height="1050" as="geometry" />
        </mxCell>
        <mxCell id="bb5lSr_9JjfSxzTluUoF-6" value="＜静的関数＞&#xa;staticなど、&#xa;実体を持たず（インスタンス化なし）に動作する関数" style="swimlane;startSize=0;swimlaneFillColor=default;verticalAlign=top;align=center;fontSize=16;" parent="bb5lSr_9JjfSxzTluUoF-1" vertex="1">
          <mxGeometry x="20" y="34" width="520" height="76" as="geometry" />
        </mxCell>
        <mxCell id="bb5lSr_9JjfSxzTluUoF-7" value="＜const関数＞&#xa;実体の部分を書き換えない関数&#xa;（自身の変数などを書き替えない）" style="swimlane;startSize=0;swimlaneFillColor=default;verticalAlign=top;align=center;fontSize=16;" parent="bb5lSr_9JjfSxzTluUoF-1" vertex="1">
          <mxGeometry x="20" y="130" width="520" height="76" as="geometry" />
        </mxCell>
        <mxCell id="bb5lSr_9JjfSxzTluUoF-8" value="＜仮想関数＞&#xa;この関数を呼び出した際に、&#xa;インスタンス化された派生クラスからの呼び出しであった場合、&#xa;実行される関数を変更できる関数、&#xa;変更時は＜継承関数＞というタグをつける" style="swimlane;startSize=0;swimlaneFillColor=default;verticalAlign=top;align=center;fontSize=16;" parent="bb5lSr_9JjfSxzTluUoF-1" vertex="1">
          <mxGeometry x="20" y="230" width="520" height="140" as="geometry" />
        </mxCell>
        <mxCell id="bb5lSr_9JjfSxzTluUoF-9" value="＜継承関数＞&#xa;基底クラスの＜仮想関数＞の呼び出し時、&#xa;自インスタンスからの実行時に、&#xa;呼び出される関数を自インスタンスのものに変更することを指す" style="swimlane;startSize=0;swimlaneFillColor=default;verticalAlign=top;align=center;fontSize=16;" parent="bb5lSr_9JjfSxzTluUoF-1" vertex="1">
          <mxGeometry x="20" y="510" width="520" height="110" as="geometry" />
        </mxCell>
        <mxCell id="bb5lSr_9JjfSxzTluUoF-11" value="＜テンプレート＞&#xa;一部のインスタンスの型を変更できる" style="swimlane;startSize=0;swimlaneFillColor=default;verticalAlign=top;align=center;fontSize=16;" parent="bb5lSr_9JjfSxzTluUoF-1" vertex="1">
          <mxGeometry x="20" y="650" width="520" height="60" as="geometry" />
        </mxCell>
        <mxCell id="bb5lSr_9JjfSxzTluUoF-12" value="＜静的変数＞&#xa;インスタンス化されたクラス内には生成されず&#xa;クラスのスコープ内でインスタンス化される変数" style="swimlane;startSize=0;swimlaneFillColor=default;verticalAlign=top;align=center;fontSize=16;" parent="bb5lSr_9JjfSxzTluUoF-1" vertex="1">
          <mxGeometry x="20" y="730" width="520" height="100" as="geometry" />
        </mxCell>
        <mxCell id="8VopN5NPwHb7rfLFwlSK-1" value="＜delete＞&#xa;削除された関数&#xa;その関数を使用できなくする" style="swimlane;startSize=0;swimlaneFillColor=default;verticalAlign=top;align=center;fontSize=16;" parent="bb5lSr_9JjfSxzTluUoF-1" vertex="1">
          <mxGeometry x="20" y="870" width="520" height="100" as="geometry" />
        </mxCell>
        <mxCell id="bb5lSr_9JjfSxzTluUoF-10" value="＜純粋仮想関数＞&#xa;関数の宣言のみがされている状態を指す&#xa;派生クラスに定義を必ず作らなくてはならないことを指し、&#xa;この関数があるクラスは生成できない" style="swimlane;startSize=0;swimlaneFillColor=default;verticalAlign=top;align=center;fontSize=16;" parent="bb5lSr_9JjfSxzTluUoF-1" vertex="1">
          <mxGeometry x="20" y="389.5" width="520" height="110" as="geometry" />
        </mxCell>
        <mxCell id="-UjHsnJ8wEKdRqjG0j_--1" value="" style="endArrow=none;dashed=1;html=1;strokeWidth=5;rounded=0;entryX=1;entryY=0.5;entryDx=0;entryDy=0;" parent="1" target="_2Wai_T-3tKtkwgZFYbp-46" edge="1">
          <mxGeometry width="50" height="50" relative="1" as="geometry">
            <mxPoint x="760" y="1440" as="sourcePoint" />
            <mxPoint x="490" y="1407.5" as="targetPoint" />
          </mxGeometry>
        </mxCell>
        <mxCell id="CH2RhDooVL0Sbm7diKhD-1" value="X - X　ネームスペース＜X::X＞" style="swimlane;whiteSpace=wrap;html=1;swimlaneFillColor=default;align=center;" parent="1" vertex="1">
          <mxGeometry x="880" y="1270" width="730" height="540" as="geometry" />
        </mxCell>
        <mxCell id="_2Wai_T-3tKtkwgZFYbp-1" value="&lt;span style=&quot;font-weight: 700;&quot;&gt;Template Of Class Box&lt;/span&gt;&lt;br style=&quot;font-weight: 700;&quot;&gt;&lt;span style=&quot;font-weight: 700;&quot;&gt;クラスの箱の定型の形&lt;/span&gt;" style="swimlane;fontStyle=0;childLayout=stackLayout;horizontal=1;startSize=50;horizontalStack=0;resizeParent=1;resizeParentMax=0;resizeLast=0;collapsible=1;marginBottom=0;whiteSpace=wrap;html=1;swimlaneFillColor=default;" parent="1" vertex="1">
          <mxGeometry x="70" y="24" width="260" height="635" as="geometry" />
        </mxCell>
        <mxCell id="_2Wai_T-3tKtkwgZFYbp-2" value="所有責任" style="swimlane;fontStyle=0;childLayout=stackLayout;horizontal=1;startSize=30;horizontalStack=0;resizeParent=1;resizeParentMax=0;resizeLast=0;collapsible=1;marginBottom=0;whiteSpace=wrap;html=1;" parent="_2Wai_T-3tKtkwgZFYbp-1" vertex="1">
          <mxGeometry y="50" width="260" height="60" as="geometry" />
        </mxCell>
        <mxCell id="_2Wai_T-3tKtkwgZFYbp-5" value="責任１" style="text;strokeColor=none;fillColor=none;align=left;verticalAlign=middle;spacingLeft=4;spacingRight=4;overflow=hidden;points=[[0,0.5],[1,0.5]];portConstraint=eastwest;rotatable=0;whiteSpace=wrap;html=1;" parent="_2Wai_T-3tKtkwgZFYbp-2" vertex="1">
          <mxGeometry y="30" width="260" height="30" as="geometry" />
        </mxCell>
        <mxCell id="_2Wai_T-3tKtkwgZFYbp-20" value="" style="rounded=0;whiteSpace=wrap;html=1;" parent="_2Wai_T-3tKtkwgZFYbp-1" vertex="1">
          <mxGeometry y="110" width="260" height="15" as="geometry" />
        </mxCell>
        <mxCell id="_2Wai_T-3tKtkwgZFYbp-6" value="パラメータ" style="swimlane;fontStyle=0;childLayout=stackLayout;horizontal=1;startSize=30;horizontalStack=0;resizeParent=1;resizeParentMax=0;resizeLast=0;collapsible=1;marginBottom=0;whiteSpace=wrap;html=1;" parent="_2Wai_T-3tKtkwgZFYbp-1" vertex="1">
          <mxGeometry y="125" width="260" height="120" as="geometry" />
        </mxCell>
        <mxCell id="_2Wai_T-3tKtkwgZFYbp-7" value="ー　プライベートパラメータ１" style="text;strokeColor=none;fillColor=none;align=left;verticalAlign=middle;spacingLeft=4;spacingRight=4;overflow=hidden;points=[[0,0.5],[1,0.5]];portConstraint=eastwest;rotatable=0;whiteSpace=wrap;html=1;" parent="_2Wai_T-3tKtkwgZFYbp-6" vertex="1">
          <mxGeometry y="30" width="260" height="30" as="geometry" />
        </mxCell>
        <mxCell id="_2Wai_T-3tKtkwgZFYbp-211" value="＝　プロテクトパラメータ１" style="text;strokeColor=none;fillColor=none;align=left;verticalAlign=middle;spacingLeft=4;spacingRight=4;overflow=hidden;points=[[0,0.5],[1,0.5]];portConstraint=eastwest;rotatable=0;whiteSpace=wrap;html=1;" parent="_2Wai_T-3tKtkwgZFYbp-6" vertex="1">
          <mxGeometry y="60" width="260" height="30" as="geometry" />
        </mxCell>
        <mxCell id="_2Wai_T-3tKtkwgZFYbp-212" value="＋　パブリックパラメータ１" style="text;strokeColor=none;fillColor=none;align=left;verticalAlign=middle;spacingLeft=4;spacingRight=4;overflow=hidden;points=[[0,0.5],[1,0.5]];portConstraint=eastwest;rotatable=0;whiteSpace=wrap;html=1;" parent="_2Wai_T-3tKtkwgZFYbp-6" vertex="1">
          <mxGeometry y="90" width="260" height="30" as="geometry" />
        </mxCell>
        <mxCell id="r6gE7z2jWiP0r7WyRW_k-11" value="" style="rounded=0;whiteSpace=wrap;html=1;" parent="_2Wai_T-3tKtkwgZFYbp-1" vertex="1">
          <mxGeometry y="245" width="260" height="15" as="geometry" />
        </mxCell>
        <mxCell id="_2Wai_T-3tKtkwgZFYbp-10" value="メゾッド" style="swimlane;fontStyle=0;childLayout=stackLayout;horizontal=1;startSize=30;horizontalStack=0;resizeParent=1;resizeParentMax=0;resizeLast=0;collapsible=1;marginBottom=0;whiteSpace=wrap;html=1;" parent="_2Wai_T-3tKtkwgZFYbp-1" vertex="1">
          <mxGeometry y="260" width="260" height="120" as="geometry" />
        </mxCell>
        <mxCell id="_2Wai_T-3tKtkwgZFYbp-216" value="ー　プライベートメゾッド１" style="text;strokeColor=none;fillColor=none;align=left;verticalAlign=middle;spacingLeft=4;spacingRight=4;overflow=hidden;points=[[0,0.5],[1,0.5]];portConstraint=eastwest;rotatable=0;whiteSpace=wrap;html=1;" parent="_2Wai_T-3tKtkwgZFYbp-10" vertex="1">
          <mxGeometry y="30" width="260" height="30" as="geometry" />
        </mxCell>
        <mxCell id="_2Wai_T-3tKtkwgZFYbp-217" value="＝　プロテクトメゾッド１" style="text;strokeColor=none;fillColor=none;align=left;verticalAlign=middle;spacingLeft=4;spacingRight=4;overflow=hidden;points=[[0,0.5],[1,0.5]];portConstraint=eastwest;rotatable=0;whiteSpace=wrap;html=1;" parent="_2Wai_T-3tKtkwgZFYbp-10" vertex="1">
          <mxGeometry y="60" width="260" height="30" as="geometry" />
        </mxCell>
        <mxCell id="_2Wai_T-3tKtkwgZFYbp-218" value="＋　パブリックメゾッド１" style="text;strokeColor=none;fillColor=none;align=left;verticalAlign=middle;spacingLeft=4;spacingRight=4;overflow=hidden;points=[[0,0.5],[1,0.5]];portConstraint=eastwest;rotatable=0;whiteSpace=wrap;html=1;" parent="_2Wai_T-3tKtkwgZFYbp-10" vertex="1">
          <mxGeometry y="90" width="260" height="30" as="geometry" />
        </mxCell>
        <mxCell id="r6gE7z2jWiP0r7WyRW_k-12" value="" style="rounded=0;whiteSpace=wrap;html=1;" parent="_2Wai_T-3tKtkwgZFYbp-1" vertex="1">
          <mxGeometry y="380" width="260" height="15" as="geometry" />
        </mxCell>
        <mxCell id="r6gE7z2jWiP0r7WyRW_k-1" value="&lt;span style=&quot;font-size: 17px; font-weight: 700;&quot;&gt;現在の設計評価&lt;/span&gt;" style="swimlane;fontStyle=0;childLayout=stackLayout;horizontal=1;startSize=30;horizontalStack=0;resizeParent=1;resizeParentMax=0;resizeLast=0;collapsible=1;marginBottom=0;whiteSpace=wrap;html=1;swimlaneFillColor=default;" parent="_2Wai_T-3tKtkwgZFYbp-1" vertex="1">
          <mxGeometry y="395" width="260" height="240" as="geometry">
            <mxRectangle x="590" y="710" width="160" height="30" as="alternateBounds" />
          </mxGeometry>
        </mxCell>
        <mxCell id="r6gE7z2jWiP0r7WyRW_k-2" value="&lt;b&gt;&lt;font style=&quot;font-size: 16px;&quot;&gt;評価結果&lt;/font&gt;&lt;/b&gt;" style="swimlane;fontStyle=0;childLayout=stackLayout;horizontal=1;startSize=30;horizontalStack=0;resizeParent=1;resizeParentMax=0;resizeLast=0;collapsible=1;marginBottom=0;whiteSpace=wrap;html=1;" parent="r6gE7z2jWiP0r7WyRW_k-1" vertex="1">
          <mxGeometry y="30" width="260" height="60" as="geometry" />
        </mxCell>
        <mxCell id="r6gE7z2jWiP0r7WyRW_k-3" value="正常" style="text;strokeColor=none;fillColor=none;align=center;verticalAlign=middle;spacingLeft=4;spacingRight=4;overflow=hidden;points=[[0,0.5],[1,0.5]];portConstraint=eastwest;rotatable=0;whiteSpace=wrap;html=1;" parent="r6gE7z2jWiP0r7WyRW_k-2" vertex="1">
          <mxGeometry y="30" width="260" height="30" as="geometry" />
        </mxCell>
        <mxCell id="r6gE7z2jWiP0r7WyRW_k-4" value="" style="rounded=0;whiteSpace=wrap;html=1;" parent="r6gE7z2jWiP0r7WyRW_k-1" vertex="1">
          <mxGeometry y="90" width="260" height="15" as="geometry" />
        </mxCell>
        <mxCell id="r6gE7z2jWiP0r7WyRW_k-5" value="&lt;span style=&quot;font-size: 16px;&quot;&gt;&lt;b&gt;問題点&lt;/b&gt;&lt;/span&gt;" style="swimlane;fontStyle=0;childLayout=stackLayout;horizontal=1;startSize=30;horizontalStack=0;resizeParent=1;resizeParentMax=0;resizeLast=0;collapsible=1;marginBottom=0;whiteSpace=wrap;html=1;" parent="r6gE7z2jWiP0r7WyRW_k-1" vertex="1">
          <mxGeometry y="105" width="260" height="60" as="geometry" />
        </mxCell>
        <mxCell id="r6gE7z2jWiP0r7WyRW_k-6" value="問題点１" style="text;strokeColor=none;fillColor=none;align=center;verticalAlign=middle;spacingLeft=4;spacingRight=4;overflow=hidden;points=[[0,0.5],[1,0.5]];portConstraint=eastwest;rotatable=0;whiteSpace=wrap;html=1;" parent="r6gE7z2jWiP0r7WyRW_k-5" vertex="1">
          <mxGeometry y="30" width="260" height="30" as="geometry" />
        </mxCell>
        <mxCell id="r6gE7z2jWiP0r7WyRW_k-7" value="" style="rounded=0;whiteSpace=wrap;html=1;" parent="r6gE7z2jWiP0r7WyRW_k-1" vertex="1">
          <mxGeometry y="165" width="260" height="15" as="geometry" />
        </mxCell>
        <mxCell id="r6gE7z2jWiP0r7WyRW_k-8" value="&lt;span style=&quot;font-size: 16px;&quot;&gt;&lt;b&gt;修正方法&lt;/b&gt;&lt;/span&gt;" style="swimlane;fontStyle=0;childLayout=stackLayout;horizontal=1;startSize=30;horizontalStack=0;resizeParent=1;resizeParentMax=0;resizeLast=0;collapsible=1;marginBottom=0;whiteSpace=wrap;html=1;" parent="r6gE7z2jWiP0r7WyRW_k-1" vertex="1">
          <mxGeometry y="180" width="260" height="60" as="geometry" />
        </mxCell>
        <mxCell id="r6gE7z2jWiP0r7WyRW_k-9" value="修正方法１" style="text;strokeColor=none;fillColor=none;align=center;verticalAlign=middle;spacingLeft=4;spacingRight=4;overflow=hidden;points=[[0,0.5],[1,0.5]];portConstraint=eastwest;rotatable=0;whiteSpace=wrap;html=1;" parent="r6gE7z2jWiP0r7WyRW_k-8" vertex="1">
          <mxGeometry y="30" width="260" height="30" as="geometry" />
        </mxCell>
        <mxCell id="_2Wai_T-3tKtkwgZFYbp-46" value="&lt;span style=&quot;font-size: 17px;&quot;&gt;&lt;b&gt;思案中の新しい構想　ver.x.x.x&lt;/b&gt;&lt;/span&gt;" style="swimlane;fontStyle=0;childLayout=stackLayout;horizontal=1;startSize=30;horizontalStack=0;resizeParent=1;resizeParentMax=0;resizeLast=0;collapsible=1;marginBottom=0;whiteSpace=wrap;html=1;swimlaneFillColor=default;" parent="1" vertex="1">
          <mxGeometry x="70" y="1320" width="340" height="240" as="geometry">
            <mxRectangle x="60" y="1320" width="160" height="30" as="alternateBounds" />
          </mxGeometry>
        </mxCell>
        <mxCell id="_2Wai_T-3tKtkwgZFYbp-47" value="&lt;b&gt;&lt;font style=&quot;font-size: 16px;&quot;&gt;構想での変更内容&lt;/font&gt;&lt;/b&gt;" style="swimlane;fontStyle=0;childLayout=stackLayout;horizontal=1;startSize=30;horizontalStack=0;resizeParent=1;resizeParentMax=0;resizeLast=0;collapsible=1;marginBottom=0;whiteSpace=wrap;html=1;" parent="_2Wai_T-3tKtkwgZFYbp-46" vertex="1">
          <mxGeometry y="30" width="340" height="60" as="geometry" />
        </mxCell>
        <mxCell id="_2Wai_T-3tKtkwgZFYbp-48" value="変更内容１" style="text;strokeColor=none;fillColor=none;align=center;verticalAlign=middle;spacingLeft=4;spacingRight=4;overflow=hidden;points=[[0,0.5],[1,0.5]];portConstraint=eastwest;rotatable=0;whiteSpace=wrap;html=1;" parent="_2Wai_T-3tKtkwgZFYbp-47" vertex="1">
          <mxGeometry y="30" width="340" height="30" as="geometry" />
        </mxCell>
        <mxCell id="_2Wai_T-3tKtkwgZFYbp-49" value="" style="rounded=0;whiteSpace=wrap;html=1;" parent="_2Wai_T-3tKtkwgZFYbp-46" vertex="1">
          <mxGeometry y="90" width="340" height="15" as="geometry" />
        </mxCell>
        <mxCell id="_2Wai_T-3tKtkwgZFYbp-50" value="&lt;span style=&quot;font-size: 16px;&quot;&gt;&lt;b&gt;メリット&lt;/b&gt;&lt;/span&gt;" style="swimlane;fontStyle=0;childLayout=stackLayout;horizontal=1;startSize=30;horizontalStack=0;resizeParent=1;resizeParentMax=0;resizeLast=0;collapsible=1;marginBottom=0;whiteSpace=wrap;html=1;" parent="_2Wai_T-3tKtkwgZFYbp-46" vertex="1">
          <mxGeometry y="105" width="340" height="60" as="geometry" />
        </mxCell>
        <mxCell id="_2Wai_T-3tKtkwgZFYbp-51" value="メリット１" style="text;strokeColor=none;fillColor=none;align=center;verticalAlign=middle;spacingLeft=4;spacingRight=4;overflow=hidden;points=[[0,0.5],[1,0.5]];portConstraint=eastwest;rotatable=0;whiteSpace=wrap;html=1;" parent="_2Wai_T-3tKtkwgZFYbp-50" vertex="1">
          <mxGeometry y="30" width="340" height="30" as="geometry" />
        </mxCell>
        <mxCell id="_2Wai_T-3tKtkwgZFYbp-52" value="" style="rounded=0;whiteSpace=wrap;html=1;" parent="_2Wai_T-3tKtkwgZFYbp-46" vertex="1">
          <mxGeometry y="165" width="340" height="15" as="geometry" />
        </mxCell>
        <mxCell id="_2Wai_T-3tKtkwgZFYbp-53" value="&lt;span style=&quot;font-size: 16px;&quot;&gt;&lt;b&gt;デメリット&lt;/b&gt;&lt;/span&gt;" style="swimlane;fontStyle=0;childLayout=stackLayout;horizontal=1;startSize=30;horizontalStack=0;resizeParent=1;resizeParentMax=0;resizeLast=0;collapsible=1;marginBottom=0;whiteSpace=wrap;html=1;" parent="_2Wai_T-3tKtkwgZFYbp-46" vertex="1">
          <mxGeometry y="180" width="340" height="60" as="geometry" />
        </mxCell>
        <mxCell id="_2Wai_T-3tKtkwgZFYbp-54" value="デメリット１" style="text;strokeColor=none;fillColor=none;align=center;verticalAlign=middle;spacingLeft=4;spacingRight=4;overflow=hidden;points=[[0,0.5],[1,0.5]];portConstraint=eastwest;rotatable=0;whiteSpace=wrap;html=1;" parent="_2Wai_T-3tKtkwgZFYbp-53" vertex="1">
          <mxGeometry y="30" width="340" height="30" as="geometry" />
        </mxCell>
        <mxCell id="_2Wai_T-3tKtkwgZFYbp-93" value="&lt;b&gt;&lt;font style=&quot;font-size: 16px;&quot;&gt;評価段階&lt;/font&gt;&lt;/b&gt;" style="swimlane;fontStyle=0;childLayout=stackLayout;horizontal=1;startSize=30;horizontalStack=0;resizeParent=1;resizeParentMax=0;resizeLast=0;collapsible=1;marginBottom=0;whiteSpace=wrap;html=1;swimlaneFillColor=default;" parent="1" vertex="1">
          <mxGeometry x="380" y="410" width="410" height="735" as="geometry">
            <mxRectangle x="500" y="420" width="100" height="30" as="alternateBounds" />
          </mxGeometry>
        </mxCell>
        <mxCell id="_2Wai_T-3tKtkwgZFYbp-94" value="&lt;font style=&quot;font-size: 16px;&quot;&gt;&lt;b&gt;概要&lt;/b&gt;&lt;/font&gt;" style="swimlane;fontStyle=0;childLayout=stackLayout;horizontal=1;startSize=30;horizontalStack=0;resizeParent=1;resizeParentMax=0;resizeLast=0;collapsible=1;marginBottom=0;whiteSpace=wrap;html=1;" parent="_2Wai_T-3tKtkwgZFYbp-93" vertex="1">
          <mxGeometry y="30" width="410" height="60" as="geometry" />
        </mxCell>
        <mxCell id="_2Wai_T-3tKtkwgZFYbp-95" value="&lt;span style=&quot;text-align: center; text-wrap: nowrap;&quot;&gt;&lt;font&gt;全てのクラスに設計評価を付け、設計的問題が存在するか否かを判断する&lt;/font&gt;&lt;/span&gt;" style="text;strokeColor=none;fillColor=none;align=left;verticalAlign=middle;spacingLeft=4;spacingRight=4;overflow=hidden;points=[[0,0.5],[1,0.5]];portConstraint=eastwest;rotatable=0;whiteSpace=wrap;html=1;" parent="_2Wai_T-3tKtkwgZFYbp-94" vertex="1">
          <mxGeometry y="30" width="410" height="30" as="geometry" />
        </mxCell>
        <mxCell id="_2Wai_T-3tKtkwgZFYbp-96" value="" style="rounded=0;whiteSpace=wrap;html=1;" parent="_2Wai_T-3tKtkwgZFYbp-93" vertex="1">
          <mxGeometry y="90" width="410" height="15" as="geometry" />
        </mxCell>
        <mxCell id="_2Wai_T-3tKtkwgZFYbp-97" value="&lt;font style=&quot;font-size: 16px;&quot;&gt;&lt;b&gt;１．正常&lt;/b&gt;&lt;/font&gt;" style="swimlane;fontStyle=0;childLayout=stackLayout;horizontal=1;startSize=30;horizontalStack=0;resizeParent=1;resizeParentMax=0;resizeLast=0;collapsible=1;marginBottom=0;whiteSpace=wrap;html=1;" parent="_2Wai_T-3tKtkwgZFYbp-93" vertex="1">
          <mxGeometry y="105" width="410" height="90" as="geometry" />
        </mxCell>
        <mxCell id="_2Wai_T-3tKtkwgZFYbp-98" value="&lt;span style=&quot;text-align: center; text-wrap: nowrap;&quot;&gt;&lt;font&gt;現状の設計は問題なく稼働する&lt;/font&gt;&lt;/span&gt;" style="text;strokeColor=none;fillColor=none;align=left;verticalAlign=middle;spacingLeft=4;spacingRight=4;overflow=hidden;points=[[0,0.5],[1,0.5]];portConstraint=eastwest;rotatable=0;whiteSpace=wrap;html=1;" parent="_2Wai_T-3tKtkwgZFYbp-97" vertex="1">
          <mxGeometry y="30" width="410" height="30" as="geometry" />
        </mxCell>
        <mxCell id="_2Wai_T-3tKtkwgZFYbp-99" value="&lt;span style=&quot;text-align: center; text-wrap: nowrap;&quot;&gt;&lt;font&gt;設計はクリーンであり問題はない&lt;/font&gt;&lt;/span&gt;" style="text;strokeColor=none;fillColor=none;align=left;verticalAlign=middle;spacingLeft=4;spacingRight=4;overflow=hidden;points=[[0,0.5],[1,0.5]];portConstraint=eastwest;rotatable=0;whiteSpace=wrap;html=1;" parent="_2Wai_T-3tKtkwgZFYbp-97" vertex="1">
          <mxGeometry y="60" width="410" height="30" as="geometry" />
        </mxCell>
        <mxCell id="_2Wai_T-3tKtkwgZFYbp-100" value="" style="rounded=0;whiteSpace=wrap;html=1;" parent="_2Wai_T-3tKtkwgZFYbp-93" vertex="1">
          <mxGeometry y="195" width="410" height="15" as="geometry" />
        </mxCell>
        <mxCell id="_2Wai_T-3tKtkwgZFYbp-101" value="&lt;font style=&quot;font-size: 16px;&quot;&gt;&lt;b&gt;２．修正点あり&lt;/b&gt;&lt;/font&gt;" style="swimlane;fontStyle=0;childLayout=stackLayout;horizontal=1;startSize=30;horizontalStack=0;resizeParent=1;resizeParentMax=0;resizeLast=0;collapsible=1;marginBottom=0;whiteSpace=wrap;html=1;" parent="_2Wai_T-3tKtkwgZFYbp-93" vertex="1">
          <mxGeometry y="210" width="410" height="180" as="geometry" />
        </mxCell>
        <mxCell id="_2Wai_T-3tKtkwgZFYbp-102" value="&lt;span style=&quot;text-align: center; text-wrap: nowrap;&quot;&gt;&lt;font&gt;動作は問題なし&lt;/font&gt;&lt;/span&gt;" style="text;strokeColor=none;fillColor=none;align=left;verticalAlign=middle;spacingLeft=4;spacingRight=4;overflow=hidden;points=[[0,0.5],[1,0.5]];portConstraint=eastwest;rotatable=0;whiteSpace=wrap;html=1;" parent="_2Wai_T-3tKtkwgZFYbp-101" vertex="1">
          <mxGeometry y="30" width="410" height="30" as="geometry" />
        </mxCell>
        <mxCell id="_2Wai_T-3tKtkwgZFYbp-103" value="&lt;span style=&quot;text-align: center; text-wrap: nowrap;&quot;&gt;&lt;font&gt;バグを生みやすい設計&lt;/font&gt;&lt;/span&gt;" style="text;strokeColor=none;fillColor=none;align=left;verticalAlign=middle;spacingLeft=4;spacingRight=4;overflow=hidden;points=[[0,0.5],[1,0.5]];portConstraint=eastwest;rotatable=0;whiteSpace=wrap;html=1;" parent="_2Wai_T-3tKtkwgZFYbp-101" vertex="1">
          <mxGeometry y="60" width="410" height="30" as="geometry" />
        </mxCell>
        <mxCell id="_2Wai_T-3tKtkwgZFYbp-104" value="&lt;div style=&quot;text-align: center;&quot;&gt;&lt;span style=&quot;background-color: initial; text-wrap: nowrap;&quot;&gt;整合性、合理性がない設計&lt;/span&gt;&lt;/div&gt;" style="text;strokeColor=none;fillColor=none;align=left;verticalAlign=middle;spacingLeft=4;spacingRight=4;overflow=hidden;points=[[0,0.5],[1,0.5]];portConstraint=eastwest;rotatable=0;whiteSpace=wrap;html=1;" parent="_2Wai_T-3tKtkwgZFYbp-101" vertex="1">
          <mxGeometry y="90" width="410" height="30" as="geometry" />
        </mxCell>
        <mxCell id="_2Wai_T-3tKtkwgZFYbp-105" value="&lt;div style=&quot;text-align: center;&quot;&gt;&lt;span style=&quot;background-color: initial; text-wrap: nowrap;&quot;&gt;ミスを誘発する設計&lt;/span&gt;&lt;/div&gt;" style="text;strokeColor=none;fillColor=none;align=left;verticalAlign=middle;spacingLeft=4;spacingRight=4;overflow=hidden;points=[[0,0.5],[1,0.5]];portConstraint=eastwest;rotatable=0;whiteSpace=wrap;html=1;" parent="_2Wai_T-3tKtkwgZFYbp-101" vertex="1">
          <mxGeometry y="120" width="410" height="30" as="geometry" />
        </mxCell>
        <mxCell id="_2Wai_T-3tKtkwgZFYbp-106" value="&lt;div style=&quot;text-align: center;&quot;&gt;&lt;span style=&quot;background-color: initial; text-wrap: nowrap;&quot;&gt;など&lt;/span&gt;&lt;/div&gt;" style="text;strokeColor=none;fillColor=none;align=left;verticalAlign=middle;spacingLeft=4;spacingRight=4;overflow=hidden;points=[[0,0.5],[1,0.5]];portConstraint=eastwest;rotatable=0;whiteSpace=wrap;html=1;" parent="_2Wai_T-3tKtkwgZFYbp-101" vertex="1">
          <mxGeometry y="150" width="410" height="30" as="geometry" />
        </mxCell>
        <mxCell id="_2Wai_T-3tKtkwgZFYbp-107" value="" style="rounded=0;whiteSpace=wrap;html=1;" parent="_2Wai_T-3tKtkwgZFYbp-93" vertex="1">
          <mxGeometry y="390" width="410" height="15" as="geometry" />
        </mxCell>
        <mxCell id="_2Wai_T-3tKtkwgZFYbp-108" value="&lt;font style=&quot;font-size: 16px;&quot;&gt;&lt;b&gt;３．問題あり&lt;/b&gt;&lt;/font&gt;" style="swimlane;fontStyle=0;childLayout=stackLayout;horizontal=1;startSize=30;horizontalStack=0;resizeParent=1;resizeParentMax=0;resizeLast=0;collapsible=1;marginBottom=0;whiteSpace=wrap;html=1;" parent="_2Wai_T-3tKtkwgZFYbp-93" vertex="1">
          <mxGeometry y="405" width="410" height="120" as="geometry" />
        </mxCell>
        <mxCell id="_2Wai_T-3tKtkwgZFYbp-109" value="&lt;span style=&quot;text-align: center; text-wrap: nowrap;&quot;&gt;&lt;font&gt;動作に問題が発生する設計&lt;/font&gt;&lt;/span&gt;" style="text;strokeColor=none;fillColor=none;align=left;verticalAlign=middle;spacingLeft=4;spacingRight=4;overflow=hidden;points=[[0,0.5],[1,0.5]];portConstraint=eastwest;rotatable=0;whiteSpace=wrap;html=1;" parent="_2Wai_T-3tKtkwgZFYbp-108" vertex="1">
          <mxGeometry y="30" width="410" height="30" as="geometry" />
        </mxCell>
        <mxCell id="_2Wai_T-3tKtkwgZFYbp-110" value="&lt;div style=&quot;text-align: center;&quot;&gt;&lt;span style=&quot;background-color: initial; text-wrap: nowrap;&quot;&gt;バグの発見や処理のフローの解読を設計で難しくしてしまっている&lt;/span&gt;&lt;/div&gt;" style="text;strokeColor=none;fillColor=none;align=left;verticalAlign=middle;spacingLeft=4;spacingRight=4;overflow=hidden;points=[[0,0.5],[1,0.5]];portConstraint=eastwest;rotatable=0;whiteSpace=wrap;html=1;" parent="_2Wai_T-3tKtkwgZFYbp-108" vertex="1">
          <mxGeometry y="60" width="410" height="30" as="geometry" />
        </mxCell>
        <mxCell id="_2Wai_T-3tKtkwgZFYbp-111" value="&lt;div style=&quot;text-align: center;&quot;&gt;&lt;span style=&quot;background-color: initial; text-wrap: nowrap;&quot;&gt;など&lt;/span&gt;&lt;/div&gt;" style="text;strokeColor=none;fillColor=none;align=left;verticalAlign=middle;spacingLeft=4;spacingRight=4;overflow=hidden;points=[[0,0.5],[1,0.5]];portConstraint=eastwest;rotatable=0;whiteSpace=wrap;html=1;" parent="_2Wai_T-3tKtkwgZFYbp-108" vertex="1">
          <mxGeometry y="90" width="410" height="30" as="geometry" />
        </mxCell>
        <mxCell id="_2Wai_T-3tKtkwgZFYbp-112" value="" style="rounded=0;whiteSpace=wrap;html=1;" parent="_2Wai_T-3tKtkwgZFYbp-93" vertex="1">
          <mxGeometry y="525" width="410" height="15" as="geometry" />
        </mxCell>
        <mxCell id="_2Wai_T-3tKtkwgZFYbp-113" value="&lt;font style=&quot;font-size: 16px;&quot;&gt;&lt;b&gt;４．上位層への依存&lt;/b&gt;&lt;/font&gt;" style="swimlane;fontStyle=0;childLayout=stackLayout;horizontal=1;startSize=30;horizontalStack=0;resizeParent=1;resizeParentMax=0;resizeLast=0;collapsible=1;marginBottom=0;whiteSpace=wrap;html=1;" parent="_2Wai_T-3tKtkwgZFYbp-93" vertex="1">
          <mxGeometry y="540" width="410" height="90" as="geometry" />
        </mxCell>
        <mxCell id="_2Wai_T-3tKtkwgZFYbp-114" value="&lt;span style=&quot;text-wrap: nowrap;&quot;&gt;上位層（低水準モジュール）への直接的依存&lt;/span&gt;" style="text;strokeColor=none;fillColor=none;align=left;verticalAlign=middle;spacingLeft=4;spacingRight=4;overflow=hidden;points=[[0,0.5],[1,0.5]];portConstraint=eastwest;rotatable=0;whiteSpace=wrap;html=1;" parent="_2Wai_T-3tKtkwgZFYbp-113" vertex="1">
          <mxGeometry y="30" width="410" height="30" as="geometry" />
        </mxCell>
        <mxCell id="_2Wai_T-3tKtkwgZFYbp-115" value="&lt;span style=&quot;text-wrap: nowrap;&quot;&gt;上位層（低水準モジュール）への間接的依存&lt;/span&gt;" style="text;strokeColor=none;fillColor=none;align=left;verticalAlign=middle;spacingLeft=4;spacingRight=4;overflow=hidden;points=[[0,0.5],[1,0.5]];portConstraint=eastwest;rotatable=0;whiteSpace=wrap;html=1;" parent="_2Wai_T-3tKtkwgZFYbp-113" vertex="1">
          <mxGeometry y="60" width="410" height="30" as="geometry" />
        </mxCell>
        <mxCell id="_2Wai_T-3tKtkwgZFYbp-116" value="" style="rounded=0;whiteSpace=wrap;html=1;" parent="_2Wai_T-3tKtkwgZFYbp-93" vertex="1">
          <mxGeometry y="630" width="410" height="15" as="geometry" />
        </mxCell>
        <mxCell id="_2Wai_T-3tKtkwgZFYbp-117" value="&lt;font style=&quot;font-size: 16px;&quot;&gt;&lt;b&gt;５．実装予定&lt;/b&gt;&lt;/font&gt;" style="swimlane;fontStyle=0;childLayout=stackLayout;horizontal=1;startSize=30;horizontalStack=0;resizeParent=1;resizeParentMax=0;resizeLast=0;collapsible=1;marginBottom=0;whiteSpace=wrap;html=1;" parent="_2Wai_T-3tKtkwgZFYbp-93" vertex="1">
          <mxGeometry y="645" width="410" height="90" as="geometry" />
        </mxCell>
        <mxCell id="_2Wai_T-3tKtkwgZFYbp-118" value="&lt;span style=&quot;text-align: center; text-wrap: nowrap;&quot;&gt;&lt;font&gt;今後実装が完了するクラス&lt;/font&gt;&lt;/span&gt;" style="text;strokeColor=none;fillColor=none;align=left;verticalAlign=middle;spacingLeft=4;spacingRight=4;overflow=hidden;points=[[0,0.5],[1,0.5]];portConstraint=eastwest;rotatable=0;whiteSpace=wrap;html=1;" parent="_2Wai_T-3tKtkwgZFYbp-117" vertex="1">
          <mxGeometry y="30" width="410" height="30" as="geometry" />
        </mxCell>
        <mxCell id="_2Wai_T-3tKtkwgZFYbp-119" value="&lt;div style=&quot;text-align: center;&quot;&gt;&lt;span style=&quot;background-color: initial; text-wrap: nowrap;&quot;&gt;必要な機能が想定できない状態&lt;/span&gt;&lt;/div&gt;" style="text;strokeColor=none;fillColor=none;align=left;verticalAlign=middle;spacingLeft=4;spacingRight=4;overflow=hidden;points=[[0,0.5],[1,0.5]];portConstraint=eastwest;rotatable=0;whiteSpace=wrap;html=1;" parent="_2Wai_T-3tKtkwgZFYbp-117" vertex="1">
          <mxGeometry y="60" width="410" height="30" as="geometry" />
        </mxCell>
        <mxCell id="pqmOzY9RoI6Mc7h72I0J-66" value="SOLID原則チェックリスト" style="swimlane;whiteSpace=wrap;html=1;swimlaneFillColor=default;" vertex="1" parent="1">
          <mxGeometry x="1760" y="250" width="2812" height="630" as="geometry" />
        </mxCell>
        <mxCell id="pqmOzY9RoI6Mc7h72I0J-27" value="&lt;div style=&quot;font-weight: 700;&quot;&gt;LSP(リスコフの&lt;span style=&quot;background-color: initial;&quot;&gt;置換原則)&lt;/span&gt;&lt;/div&gt;&lt;span style=&quot;font-weight: 700;&quot;&gt;Liskov Substitution Principle&lt;/span&gt;" style="swimlane;fontStyle=0;childLayout=stackLayout;horizontal=1;startSize=50;horizontalStack=0;resizeParent=1;resizeParentMax=0;resizeLast=0;collapsible=1;marginBottom=0;whiteSpace=wrap;html=1;swimlaneFillColor=default;" vertex="1" parent="pqmOzY9RoI6Mc7h72I0J-66">
          <mxGeometry x="1131.5" y="37.5" width="549" height="575" as="geometry">
            <mxRectangle x="60" y="1320" width="160" height="30" as="alternateBounds" />
          </mxGeometry>
        </mxCell>
        <mxCell id="pqmOzY9RoI6Mc7h72I0J-28" value="概要" style="swimlane;fontStyle=0;childLayout=stackLayout;horizontal=1;startSize=20;horizontalStack=0;resizeParent=1;resizeParentMax=0;resizeLast=0;collapsible=1;marginBottom=0;whiteSpace=wrap;html=1;" vertex="1" parent="pqmOzY9RoI6Mc7h72I0J-27">
          <mxGeometry y="50" width="549" height="100" as="geometry" />
        </mxCell>
        <mxCell id="pqmOzY9RoI6Mc7h72I0J-29" value="基底クラスの使用箇所を&lt;span style=&quot;background-color: initial;&quot;&gt;派生クラスに変更しても動作可能。&lt;/span&gt;&lt;div&gt;もしくは派生クラスすべてが&lt;span style=&quot;background-color: initial;&quot;&gt;基底クラスの仕様に正しく従う。&lt;/span&gt;&lt;/div&gt;" style="text;strokeColor=none;fillColor=none;align=center;verticalAlign=middle;spacingLeft=4;spacingRight=4;overflow=hidden;points=[[0,0.5],[1,0.5]];portConstraint=eastwest;rotatable=0;whiteSpace=wrap;html=1;" vertex="1" parent="pqmOzY9RoI6Mc7h72I0J-28">
          <mxGeometry y="20" width="549" height="80" as="geometry" />
        </mxCell>
        <mxCell id="pqmOzY9RoI6Mc7h72I0J-30" value="" style="rounded=0;whiteSpace=wrap;html=1;" vertex="1" parent="pqmOzY9RoI6Mc7h72I0J-27">
          <mxGeometry y="150" width="549" height="15" as="geometry" />
        </mxCell>
        <mxCell id="pqmOzY9RoI6Mc7h72I0J-31" value="条件" style="swimlane;fontStyle=0;childLayout=stackLayout;horizontal=1;startSize=20;horizontalStack=0;resizeParent=1;resizeParentMax=0;resizeLast=0;collapsible=1;marginBottom=0;whiteSpace=wrap;html=1;" vertex="1" parent="pqmOzY9RoI6Mc7h72I0J-27">
          <mxGeometry y="165" width="549" height="410" as="geometry" />
        </mxCell>
        <mxCell id="pqmOzY9RoI6Mc7h72I0J-32" value="&lt;div&gt;各派生クラスから、&lt;span style=&quot;background-color: initial;&quot;&gt;基底クラスに&lt;/span&gt;&lt;span style=&quot;background-color: initial;&quot;&gt;ある関数の中に使用されてはいけない機能が含まれていない&lt;/span&gt;&lt;span style=&quot;background-color: initial;&quot;&gt;。&lt;/span&gt;&lt;/div&gt;&lt;div&gt;継承先などで仕様を変更しない。&lt;/div&gt;" style="text;strokeColor=none;fillColor=none;align=center;verticalAlign=middle;spacingLeft=4;spacingRight=4;overflow=hidden;points=[[0,0.5],[1,0.5]];portConstraint=eastwest;rotatable=0;whiteSpace=wrap;html=1;" vertex="1" parent="pqmOzY9RoI6Mc7h72I0J-31">
          <mxGeometry y="20" width="549" height="80" as="geometry" />
        </mxCell>
        <mxCell id="pqmOzY9RoI6Mc7h72I0J-33" value="" style="rounded=0;whiteSpace=wrap;html=1;" vertex="1" parent="pqmOzY9RoI6Mc7h72I0J-31">
          <mxGeometry y="100" width="549" height="15" as="geometry" />
        </mxCell>
        <mxCell id="pqmOzY9RoI6Mc7h72I0J-34" value="〇達成 or ✕未達成" style="swimlane;fontStyle=0;childLayout=stackLayout;horizontal=1;startSize=20;horizontalStack=0;resizeParent=1;resizeParentMax=0;resizeLast=0;collapsible=1;marginBottom=0;whiteSpace=wrap;html=1;" vertex="1" parent="pqmOzY9RoI6Mc7h72I0J-31">
          <mxGeometry y="115" width="549" height="220" as="geometry">
            <mxRectangle y="180" width="340" height="30" as="alternateBounds" />
          </mxGeometry>
        </mxCell>
        <mxCell id="pqmOzY9RoI6Mc7h72I0J-35" value="〇" style="text;strokeColor=none;fillColor=none;align=center;verticalAlign=middle;spacingLeft=4;spacingRight=4;overflow=hidden;points=[[0,0.5],[1,0.5]];portConstraint=eastwest;rotatable=0;whiteSpace=wrap;html=1;fontSize=50;fontStyle=0" vertex="1" parent="pqmOzY9RoI6Mc7h72I0J-34">
          <mxGeometry y="20" width="549" height="100" as="geometry" />
        </mxCell>
        <mxCell id="pqmOzY9RoI6Mc7h72I0J-36" value="✕" style="text;strokeColor=none;fillColor=none;align=center;verticalAlign=middle;spacingLeft=4;spacingRight=4;overflow=hidden;points=[[0,0.5],[1,0.5]];portConstraint=eastwest;rotatable=0;whiteSpace=wrap;html=1;fontSize=50;fontStyle=0" vertex="1" parent="pqmOzY9RoI6Mc7h72I0J-34">
          <mxGeometry y="120" width="549" height="100" as="geometry" />
        </mxCell>
        <mxCell id="pqmOzY9RoI6Mc7h72I0J-37" value="" style="rounded=0;whiteSpace=wrap;html=1;" vertex="1" parent="pqmOzY9RoI6Mc7h72I0J-31">
          <mxGeometry y="335" width="549" height="15" as="geometry" />
        </mxCell>
        <mxCell id="pqmOzY9RoI6Mc7h72I0J-38" value="&lt;span style=&quot;font-weight: 700;&quot;&gt;達成 or&amp;nbsp;未達成理由&lt;/span&gt;" style="swimlane;fontStyle=0;childLayout=stackLayout;horizontal=1;startSize=30;horizontalStack=0;resizeParent=1;resizeParentMax=0;resizeLast=0;collapsible=1;marginBottom=0;whiteSpace=wrap;html=1;" vertex="1" parent="pqmOzY9RoI6Mc7h72I0J-31">
          <mxGeometry y="350" width="549" height="60" as="geometry">
            <mxRectangle y="180" width="340" height="30" as="alternateBounds" />
          </mxGeometry>
        </mxCell>
        <mxCell id="pqmOzY9RoI6Mc7h72I0J-39" value="理由１" style="text;strokeColor=none;fillColor=none;align=center;verticalAlign=middle;spacingLeft=4;spacingRight=4;overflow=hidden;points=[[0,0.5],[1,0.5]];portConstraint=eastwest;rotatable=0;whiteSpace=wrap;html=1;" vertex="1" parent="pqmOzY9RoI6Mc7h72I0J-38">
          <mxGeometry y="30" width="549" height="30" as="geometry" />
        </mxCell>
        <mxCell id="pqmOzY9RoI6Mc7h72I0J-40" value="&lt;div style=&quot;font-weight: 700;&quot;&gt;&lt;div&gt;ISP(インターフェース分離の原則)&lt;/div&gt;Interface Segregation Principle&lt;br&gt;&lt;/div&gt;" style="swimlane;fontStyle=0;childLayout=stackLayout;horizontal=1;startSize=50;horizontalStack=0;resizeParent=1;resizeParentMax=0;resizeLast=0;collapsible=1;marginBottom=0;whiteSpace=wrap;html=1;swimlaneFillColor=default;" vertex="1" parent="pqmOzY9RoI6Mc7h72I0J-66">
          <mxGeometry x="1680.5" y="37.5" width="550" height="575" as="geometry">
            <mxRectangle x="60" y="1320" width="160" height="30" as="alternateBounds" />
          </mxGeometry>
        </mxCell>
        <mxCell id="pqmOzY9RoI6Mc7h72I0J-41" value="概要" style="swimlane;fontStyle=0;childLayout=stackLayout;horizontal=1;startSize=20;horizontalStack=0;resizeParent=1;resizeParentMax=0;resizeLast=0;collapsible=1;marginBottom=0;whiteSpace=wrap;html=1;" vertex="1" parent="pqmOzY9RoI6Mc7h72I0J-40">
          <mxGeometry y="50" width="550" height="100" as="geometry" />
        </mxCell>
        <mxCell id="pqmOzY9RoI6Mc7h72I0J-42" value="インターフェースは必要以上の依存関係を生み出さないために&lt;span style=&quot;background-color: initial;&quot;&gt;カテゴライズして分離し、&lt;/span&gt;&lt;div&gt;必要な機能のみを提供する。&lt;/div&gt;" style="text;strokeColor=none;fillColor=none;align=center;verticalAlign=middle;spacingLeft=4;spacingRight=4;overflow=hidden;points=[[0,0.5],[1,0.5]];portConstraint=eastwest;rotatable=0;whiteSpace=wrap;html=1;" vertex="1" parent="pqmOzY9RoI6Mc7h72I0J-41">
          <mxGeometry y="20" width="550" height="80" as="geometry" />
        </mxCell>
        <mxCell id="pqmOzY9RoI6Mc7h72I0J-43" value="" style="rounded=0;whiteSpace=wrap;html=1;" vertex="1" parent="pqmOzY9RoI6Mc7h72I0J-40">
          <mxGeometry y="150" width="550" height="15" as="geometry" />
        </mxCell>
        <mxCell id="pqmOzY9RoI6Mc7h72I0J-44" value="条件" style="swimlane;fontStyle=0;childLayout=stackLayout;horizontal=1;startSize=20;horizontalStack=0;resizeParent=1;resizeParentMax=0;resizeLast=0;collapsible=1;marginBottom=0;whiteSpace=wrap;html=1;" vertex="1" parent="pqmOzY9RoI6Mc7h72I0J-40">
          <mxGeometry y="165" width="550" height="410" as="geometry" />
        </mxCell>
        <mxCell id="pqmOzY9RoI6Mc7h72I0J-45" value="特定の言語化可能なカテゴリーごとにインターフェースが分離されている。" style="text;strokeColor=none;fillColor=none;align=center;verticalAlign=middle;spacingLeft=4;spacingRight=4;overflow=hidden;points=[[0,0.5],[1,0.5]];portConstraint=eastwest;rotatable=0;whiteSpace=wrap;html=1;" vertex="1" parent="pqmOzY9RoI6Mc7h72I0J-44">
          <mxGeometry y="20" width="550" height="80" as="geometry" />
        </mxCell>
        <mxCell id="pqmOzY9RoI6Mc7h72I0J-46" value="" style="rounded=0;whiteSpace=wrap;html=1;" vertex="1" parent="pqmOzY9RoI6Mc7h72I0J-44">
          <mxGeometry y="100" width="550" height="15" as="geometry" />
        </mxCell>
        <mxCell id="pqmOzY9RoI6Mc7h72I0J-47" value="〇達成 or ✕未達成" style="swimlane;fontStyle=0;childLayout=stackLayout;horizontal=1;startSize=20;horizontalStack=0;resizeParent=1;resizeParentMax=0;resizeLast=0;collapsible=1;marginBottom=0;whiteSpace=wrap;html=1;" vertex="1" parent="pqmOzY9RoI6Mc7h72I0J-44">
          <mxGeometry y="115" width="550" height="220" as="geometry">
            <mxRectangle y="180" width="340" height="30" as="alternateBounds" />
          </mxGeometry>
        </mxCell>
        <mxCell id="pqmOzY9RoI6Mc7h72I0J-64" value="〇" style="text;strokeColor=none;fillColor=none;align=center;verticalAlign=middle;spacingLeft=4;spacingRight=4;overflow=hidden;points=[[0,0.5],[1,0.5]];portConstraint=eastwest;rotatable=0;whiteSpace=wrap;html=1;fontSize=50;fontStyle=0" vertex="1" parent="pqmOzY9RoI6Mc7h72I0J-47">
          <mxGeometry y="20" width="550" height="100" as="geometry" />
        </mxCell>
        <mxCell id="pqmOzY9RoI6Mc7h72I0J-48" value="✕" style="text;strokeColor=none;fillColor=none;align=center;verticalAlign=middle;spacingLeft=4;spacingRight=4;overflow=hidden;points=[[0,0.5],[1,0.5]];portConstraint=eastwest;rotatable=0;whiteSpace=wrap;html=1;fontSize=50;fontStyle=0" vertex="1" parent="pqmOzY9RoI6Mc7h72I0J-47">
          <mxGeometry y="120" width="550" height="100" as="geometry" />
        </mxCell>
        <mxCell id="pqmOzY9RoI6Mc7h72I0J-49" value="" style="rounded=0;whiteSpace=wrap;html=1;" vertex="1" parent="pqmOzY9RoI6Mc7h72I0J-44">
          <mxGeometry y="335" width="550" height="15" as="geometry" />
        </mxCell>
        <mxCell id="pqmOzY9RoI6Mc7h72I0J-50" value="&lt;span style=&quot;font-weight: 700;&quot;&gt;達成 or&amp;nbsp;未達成理由&lt;/span&gt;" style="swimlane;fontStyle=0;childLayout=stackLayout;horizontal=1;startSize=30;horizontalStack=0;resizeParent=1;resizeParentMax=0;resizeLast=0;collapsible=1;marginBottom=0;whiteSpace=wrap;html=1;" vertex="1" parent="pqmOzY9RoI6Mc7h72I0J-44">
          <mxGeometry y="350" width="550" height="60" as="geometry">
            <mxRectangle y="180" width="340" height="30" as="alternateBounds" />
          </mxGeometry>
        </mxCell>
        <mxCell id="pqmOzY9RoI6Mc7h72I0J-51" value="理由１" style="text;strokeColor=none;fillColor=none;align=center;verticalAlign=middle;spacingLeft=4;spacingRight=4;overflow=hidden;points=[[0,0.5],[1,0.5]];portConstraint=eastwest;rotatable=0;whiteSpace=wrap;html=1;" vertex="1" parent="pqmOzY9RoI6Mc7h72I0J-50">
          <mxGeometry y="30" width="550" height="30" as="geometry" />
        </mxCell>
        <mxCell id="pqmOzY9RoI6Mc7h72I0J-52" value="&lt;div style=&quot;font-weight: 700;&quot;&gt;&lt;div&gt;DIP(依存性逆転の原則)&lt;/div&gt;Dependency Inversion Principle&lt;br&gt;&lt;/div&gt;" style="swimlane;fontStyle=0;childLayout=stackLayout;horizontal=1;startSize=50;horizontalStack=0;resizeParent=1;resizeParentMax=0;resizeLast=0;collapsible=1;marginBottom=0;whiteSpace=wrap;html=1;swimlaneFillColor=default;" vertex="1" parent="pqmOzY9RoI6Mc7h72I0J-66">
          <mxGeometry x="2230.5" y="37.5" width="550" height="575" as="geometry">
            <mxRectangle x="60" y="1320" width="160" height="30" as="alternateBounds" />
          </mxGeometry>
        </mxCell>
        <mxCell id="pqmOzY9RoI6Mc7h72I0J-53" value="概要" style="swimlane;fontStyle=0;childLayout=stackLayout;horizontal=1;startSize=20;horizontalStack=0;resizeParent=1;resizeParentMax=0;resizeLast=0;collapsible=1;marginBottom=0;whiteSpace=wrap;html=1;" vertex="1" parent="pqmOzY9RoI6Mc7h72I0J-52">
          <mxGeometry y="50" width="550" height="100" as="geometry" />
        </mxCell>
        <mxCell id="pqmOzY9RoI6Mc7h72I0J-54" value="高水準モジュールは&lt;span style=&quot;background-color: initial;&quot;&gt;低水準モジュールに&lt;/span&gt;&lt;span style=&quot;background-color: initial;&quot;&gt;依存してはならない。&lt;/span&gt;&lt;div&gt;&lt;span style=&quot;background-color: initial;&quot;&gt;抽象に依存するべきである。&lt;/span&gt;&lt;/div&gt;" style="text;strokeColor=none;fillColor=none;align=center;verticalAlign=middle;spacingLeft=4;spacingRight=4;overflow=hidden;points=[[0,0.5],[1,0.5]];portConstraint=eastwest;rotatable=0;whiteSpace=wrap;html=1;" vertex="1" parent="pqmOzY9RoI6Mc7h72I0J-53">
          <mxGeometry y="20" width="550" height="80" as="geometry" />
        </mxCell>
        <mxCell id="pqmOzY9RoI6Mc7h72I0J-55" value="" style="rounded=0;whiteSpace=wrap;html=1;" vertex="1" parent="pqmOzY9RoI6Mc7h72I0J-52">
          <mxGeometry y="150" width="550" height="15" as="geometry" />
        </mxCell>
        <mxCell id="pqmOzY9RoI6Mc7h72I0J-56" value="条件" style="swimlane;fontStyle=0;childLayout=stackLayout;horizontal=1;startSize=20;horizontalStack=0;resizeParent=1;resizeParentMax=0;resizeLast=0;collapsible=1;marginBottom=0;whiteSpace=wrap;html=1;" vertex="1" parent="pqmOzY9RoI6Mc7h72I0J-52">
          <mxGeometry y="165" width="550" height="410" as="geometry" />
        </mxCell>
        <mxCell id="pqmOzY9RoI6Mc7h72I0J-57" value="各層、もしくはクラスよりも、&lt;span style=&quot;background-color: initial;&quot;&gt;高水準のモジュールを参照しない。&lt;/span&gt;&lt;div&gt;高水準モジュールに対する層の抽象化が完了しており、&lt;/div&gt;&lt;div&gt;実体に触れずに機能を利用できる状態である。&lt;/div&gt;" style="text;strokeColor=none;fillColor=none;align=center;verticalAlign=middle;spacingLeft=4;spacingRight=4;overflow=hidden;points=[[0,0.5],[1,0.5]];portConstraint=eastwest;rotatable=0;whiteSpace=wrap;html=1;" vertex="1" parent="pqmOzY9RoI6Mc7h72I0J-56">
          <mxGeometry y="20" width="550" height="80" as="geometry" />
        </mxCell>
        <mxCell id="pqmOzY9RoI6Mc7h72I0J-58" value="" style="rounded=0;whiteSpace=wrap;html=1;" vertex="1" parent="pqmOzY9RoI6Mc7h72I0J-56">
          <mxGeometry y="100" width="550" height="15" as="geometry" />
        </mxCell>
        <mxCell id="pqmOzY9RoI6Mc7h72I0J-59" value="〇達成 or ✕未達成" style="swimlane;fontStyle=0;childLayout=stackLayout;horizontal=1;startSize=20;horizontalStack=0;resizeParent=1;resizeParentMax=0;resizeLast=0;collapsible=1;marginBottom=0;whiteSpace=wrap;html=1;" vertex="1" parent="pqmOzY9RoI6Mc7h72I0J-56">
          <mxGeometry y="115" width="550" height="220" as="geometry">
            <mxRectangle y="180" width="340" height="30" as="alternateBounds" />
          </mxGeometry>
        </mxCell>
        <mxCell id="pqmOzY9RoI6Mc7h72I0J-65" value="〇" style="text;strokeColor=none;fillColor=none;align=center;verticalAlign=middle;spacingLeft=4;spacingRight=4;overflow=hidden;points=[[0,0.5],[1,0.5]];portConstraint=eastwest;rotatable=0;whiteSpace=wrap;html=1;fontSize=50;fontStyle=0" vertex="1" parent="pqmOzY9RoI6Mc7h72I0J-59">
          <mxGeometry y="20" width="550" height="100" as="geometry" />
        </mxCell>
        <mxCell id="pqmOzY9RoI6Mc7h72I0J-60" value="✕" style="text;strokeColor=none;fillColor=none;align=center;verticalAlign=middle;spacingLeft=4;spacingRight=4;overflow=hidden;points=[[0,0.5],[1,0.5]];portConstraint=eastwest;rotatable=0;whiteSpace=wrap;html=1;fontSize=50;fontStyle=0" vertex="1" parent="pqmOzY9RoI6Mc7h72I0J-59">
          <mxGeometry y="120" width="550" height="100" as="geometry" />
        </mxCell>
        <mxCell id="pqmOzY9RoI6Mc7h72I0J-61" value="" style="rounded=0;whiteSpace=wrap;html=1;" vertex="1" parent="pqmOzY9RoI6Mc7h72I0J-56">
          <mxGeometry y="335" width="550" height="15" as="geometry" />
        </mxCell>
        <mxCell id="pqmOzY9RoI6Mc7h72I0J-62" value="&lt;span style=&quot;font-weight: 700;&quot;&gt;達成 or&amp;nbsp;未達成理由&lt;/span&gt;" style="swimlane;fontStyle=0;childLayout=stackLayout;horizontal=1;startSize=30;horizontalStack=0;resizeParent=1;resizeParentMax=0;resizeLast=0;collapsible=1;marginBottom=0;whiteSpace=wrap;html=1;" vertex="1" parent="pqmOzY9RoI6Mc7h72I0J-56">
          <mxGeometry y="350" width="550" height="60" as="geometry">
            <mxRectangle y="180" width="340" height="30" as="alternateBounds" />
          </mxGeometry>
        </mxCell>
        <mxCell id="pqmOzY9RoI6Mc7h72I0J-63" value="理由１" style="text;strokeColor=none;fillColor=none;align=center;verticalAlign=middle;spacingLeft=4;spacingRight=4;overflow=hidden;points=[[0,0.5],[1,0.5]];portConstraint=eastwest;rotatable=0;whiteSpace=wrap;html=1;" vertex="1" parent="pqmOzY9RoI6Mc7h72I0J-62">
          <mxGeometry y="30" width="550" height="30" as="geometry" />
        </mxCell>
        <mxCell id="pqmOzY9RoI6Mc7h72I0J-1" value="&lt;span style=&quot;font-weight: 700;&quot;&gt;SRP(単一責任の原則)&lt;/span&gt;&lt;div style=&quot;font-weight: 700;&quot;&gt;Single Responcibility Principle&lt;/div&gt;" style="swimlane;fontStyle=0;childLayout=stackLayout;horizontal=1;startSize=50;horizontalStack=0;resizeParent=1;resizeParentMax=0;resizeLast=0;collapsible=1;marginBottom=0;whiteSpace=wrap;html=1;swimlaneFillColor=default;" vertex="1" parent="pqmOzY9RoI6Mc7h72I0J-66">
          <mxGeometry x="34.5" y="37.5" width="548" height="575" as="geometry">
            <mxRectangle x="60" y="1320" width="160" height="30" as="alternateBounds" />
          </mxGeometry>
        </mxCell>
        <mxCell id="pqmOzY9RoI6Mc7h72I0J-2" value="概要" style="swimlane;fontStyle=0;childLayout=stackLayout;horizontal=1;startSize=20;horizontalStack=0;resizeParent=1;resizeParentMax=0;resizeLast=0;collapsible=1;marginBottom=0;whiteSpace=wrap;html=1;" vertex="1" parent="pqmOzY9RoI6Mc7h72I0J-1">
          <mxGeometry y="50" width="548" height="100" as="geometry" />
        </mxCell>
        <mxCell id="pqmOzY9RoI6Mc7h72I0J-3" value="クラスが所有する責任は&lt;span style=&quot;background-color: initial;&quot;&gt;一つのみであるべき&lt;/span&gt;" style="text;strokeColor=none;fillColor=none;align=center;verticalAlign=middle;spacingLeft=4;spacingRight=4;overflow=hidden;points=[[0,0.5],[1,0.5]];portConstraint=eastwest;rotatable=0;whiteSpace=wrap;html=1;" vertex="1" parent="pqmOzY9RoI6Mc7h72I0J-2">
          <mxGeometry y="20" width="548" height="80" as="geometry" />
        </mxCell>
        <mxCell id="pqmOzY9RoI6Mc7h72I0J-4" value="" style="rounded=0;whiteSpace=wrap;html=1;" vertex="1" parent="pqmOzY9RoI6Mc7h72I0J-1">
          <mxGeometry y="150" width="548" height="15" as="geometry" />
        </mxCell>
        <mxCell id="pqmOzY9RoI6Mc7h72I0J-5" value="条件" style="swimlane;fontStyle=0;childLayout=stackLayout;horizontal=1;startSize=20;horizontalStack=0;resizeParent=1;resizeParentMax=0;resizeLast=0;collapsible=1;marginBottom=0;whiteSpace=wrap;html=1;" vertex="1" parent="pqmOzY9RoI6Mc7h72I0J-1">
          <mxGeometry y="165" width="548" height="410" as="geometry" />
        </mxCell>
        <mxCell id="pqmOzY9RoI6Mc7h72I0J-6" value="各クラスが所有している&lt;span style=&quot;background-color: initial;&quot;&gt;責任が&lt;/span&gt;&lt;span style=&quot;background-color: initial;&quot;&gt;それぞれ一つのみ。&lt;/span&gt;" style="text;strokeColor=none;fillColor=none;align=center;verticalAlign=middle;spacingLeft=4;spacingRight=4;overflow=hidden;points=[[0,0.5],[1,0.5]];portConstraint=eastwest;rotatable=0;whiteSpace=wrap;html=1;" vertex="1" parent="pqmOzY9RoI6Mc7h72I0J-5">
          <mxGeometry y="20" width="548" height="80" as="geometry" />
        </mxCell>
        <mxCell id="pqmOzY9RoI6Mc7h72I0J-7" value="" style="rounded=0;whiteSpace=wrap;html=1;" vertex="1" parent="pqmOzY9RoI6Mc7h72I0J-5">
          <mxGeometry y="100" width="548" height="15" as="geometry" />
        </mxCell>
        <mxCell id="pqmOzY9RoI6Mc7h72I0J-8" value="〇達成 or ✕未達成" style="swimlane;fontStyle=0;childLayout=stackLayout;horizontal=1;startSize=20;horizontalStack=0;resizeParent=1;resizeParentMax=0;resizeLast=0;collapsible=1;marginBottom=0;whiteSpace=wrap;html=1;" vertex="1" parent="pqmOzY9RoI6Mc7h72I0J-5">
          <mxGeometry y="115" width="548" height="220" as="geometry">
            <mxRectangle y="180" width="340" height="30" as="alternateBounds" />
          </mxGeometry>
        </mxCell>
        <mxCell id="pqmOzY9RoI6Mc7h72I0J-9" value="〇" style="text;strokeColor=none;fillColor=none;align=center;verticalAlign=middle;spacingLeft=4;spacingRight=4;overflow=hidden;points=[[0,0.5],[1,0.5]];portConstraint=eastwest;rotatable=0;whiteSpace=wrap;html=1;fontSize=50;fontStyle=0" vertex="1" parent="pqmOzY9RoI6Mc7h72I0J-8">
          <mxGeometry y="20" width="548" height="100" as="geometry" />
        </mxCell>
        <mxCell id="pqmOzY9RoI6Mc7h72I0J-10" value="✕" style="text;strokeColor=none;fillColor=none;align=center;verticalAlign=middle;spacingLeft=4;spacingRight=4;overflow=hidden;points=[[0,0.5],[1,0.5]];portConstraint=eastwest;rotatable=0;whiteSpace=wrap;html=1;fontSize=50;fontStyle=0" vertex="1" parent="pqmOzY9RoI6Mc7h72I0J-8">
          <mxGeometry y="120" width="548" height="100" as="geometry" />
        </mxCell>
        <mxCell id="pqmOzY9RoI6Mc7h72I0J-11" value="" style="rounded=0;whiteSpace=wrap;html=1;" vertex="1" parent="pqmOzY9RoI6Mc7h72I0J-5">
          <mxGeometry y="335" width="548" height="15" as="geometry" />
        </mxCell>
        <mxCell id="pqmOzY9RoI6Mc7h72I0J-12" value="&lt;span style=&quot;font-weight: 700;&quot;&gt;達成 or&amp;nbsp;未達成理由&lt;/span&gt;" style="swimlane;fontStyle=0;childLayout=stackLayout;horizontal=1;startSize=30;horizontalStack=0;resizeParent=1;resizeParentMax=0;resizeLast=0;collapsible=1;marginBottom=0;whiteSpace=wrap;html=1;" vertex="1" parent="pqmOzY9RoI6Mc7h72I0J-5">
          <mxGeometry y="350" width="548" height="60" as="geometry">
            <mxRectangle y="180" width="340" height="30" as="alternateBounds" />
          </mxGeometry>
        </mxCell>
        <mxCell id="pqmOzY9RoI6Mc7h72I0J-13" value="理由１" style="text;strokeColor=none;fillColor=none;align=center;verticalAlign=middle;spacingLeft=4;spacingRight=4;overflow=hidden;points=[[0,0.5],[1,0.5]];portConstraint=eastwest;rotatable=0;whiteSpace=wrap;html=1;" vertex="1" parent="pqmOzY9RoI6Mc7h72I0J-12">
          <mxGeometry y="30" width="548" height="30" as="geometry" />
        </mxCell>
        <mxCell id="pqmOzY9RoI6Mc7h72I0J-14" value="&lt;span style=&quot;font-weight: 700;&quot;&gt;OC (解放閉鎖の原則)&lt;/span&gt;&lt;div style=&quot;font-weight: 700;&quot;&gt;Open Closed Principle&lt;/div&gt;" style="swimlane;fontStyle=0;childLayout=stackLayout;horizontal=1;startSize=50;horizontalStack=0;resizeParent=1;resizeParentMax=0;resizeLast=0;collapsible=1;marginBottom=0;whiteSpace=wrap;html=1;swimlaneFillColor=default;" vertex="1" parent="pqmOzY9RoI6Mc7h72I0J-66">
          <mxGeometry x="582.5" y="37.5" width="549" height="575" as="geometry">
            <mxRectangle x="60" y="1320" width="160" height="30" as="alternateBounds" />
          </mxGeometry>
        </mxCell>
        <mxCell id="pqmOzY9RoI6Mc7h72I0J-15" value="概要" style="swimlane;fontStyle=0;childLayout=stackLayout;horizontal=1;startSize=20;horizontalStack=0;resizeParent=1;resizeParentMax=0;resizeLast=0;collapsible=1;marginBottom=0;whiteSpace=wrap;html=1;" vertex="1" parent="pqmOzY9RoI6Mc7h72I0J-14">
          <mxGeometry y="50" width="549" height="100" as="geometry" />
        </mxCell>
        <mxCell id="pqmOzY9RoI6Mc7h72I0J-16" value="&lt;span style=&quot;background-color: initial;&quot;&gt;機能の追加／拡張は許容し&lt;/span&gt;&lt;span style=&quot;background-color: initial;&quot;&gt;変更は許容しない法則。&lt;/span&gt;&lt;div&gt;（基底クラスの機能を&lt;span style=&quot;background-color: initial;&quot;&gt;派生クラスが変更せずに拡張）&lt;/span&gt;&lt;/div&gt;" style="text;strokeColor=none;fillColor=none;align=center;verticalAlign=middle;spacingLeft=4;spacingRight=4;overflow=hidden;points=[[0,0.5],[1,0.5]];portConstraint=eastwest;rotatable=0;whiteSpace=wrap;html=1;" vertex="1" parent="pqmOzY9RoI6Mc7h72I0J-15">
          <mxGeometry y="20" width="549" height="80" as="geometry" />
        </mxCell>
        <mxCell id="pqmOzY9RoI6Mc7h72I0J-17" value="" style="rounded=0;whiteSpace=wrap;html=1;" vertex="1" parent="pqmOzY9RoI6Mc7h72I0J-14">
          <mxGeometry y="150" width="549" height="15" as="geometry" />
        </mxCell>
        <mxCell id="pqmOzY9RoI6Mc7h72I0J-18" value="条件" style="swimlane;fontStyle=0;childLayout=stackLayout;horizontal=1;startSize=20;horizontalStack=0;resizeParent=1;resizeParentMax=0;resizeLast=0;collapsible=1;marginBottom=0;whiteSpace=wrap;html=1;" vertex="1" parent="pqmOzY9RoI6Mc7h72I0J-14">
          <mxGeometry y="165" width="549" height="410" as="geometry" />
        </mxCell>
        <mxCell id="pqmOzY9RoI6Mc7h72I0J-19" value="派生クラスが基底クラスに&lt;span style=&quot;background-color: initial;&quot;&gt;存在する機能に&lt;/span&gt;&lt;span style=&quot;background-color: initial;&quot;&gt;なんらかの変更を加えていない。&lt;/span&gt;" style="text;strokeColor=none;fillColor=none;align=center;verticalAlign=middle;spacingLeft=4;spacingRight=4;overflow=hidden;points=[[0,0.5],[1,0.5]];portConstraint=eastwest;rotatable=0;whiteSpace=wrap;html=1;" vertex="1" parent="pqmOzY9RoI6Mc7h72I0J-18">
          <mxGeometry y="20" width="549" height="80" as="geometry" />
        </mxCell>
        <mxCell id="pqmOzY9RoI6Mc7h72I0J-20" value="" style="rounded=0;whiteSpace=wrap;html=1;" vertex="1" parent="pqmOzY9RoI6Mc7h72I0J-18">
          <mxGeometry y="100" width="549" height="15" as="geometry" />
        </mxCell>
        <mxCell id="pqmOzY9RoI6Mc7h72I0J-21" value="〇達成 or ✕未達成" style="swimlane;fontStyle=0;childLayout=stackLayout;horizontal=1;startSize=20;horizontalStack=0;resizeParent=1;resizeParentMax=0;resizeLast=0;collapsible=1;marginBottom=0;whiteSpace=wrap;html=1;" vertex="1" parent="pqmOzY9RoI6Mc7h72I0J-18">
          <mxGeometry y="115" width="549" height="220" as="geometry">
            <mxRectangle y="180" width="340" height="30" as="alternateBounds" />
          </mxGeometry>
        </mxCell>
        <mxCell id="pqmOzY9RoI6Mc7h72I0J-22" value="〇" style="text;strokeColor=none;fillColor=none;align=center;verticalAlign=middle;spacingLeft=4;spacingRight=4;overflow=hidden;points=[[0,0.5],[1,0.5]];portConstraint=eastwest;rotatable=0;whiteSpace=wrap;html=1;fontSize=50;fontStyle=0" vertex="1" parent="pqmOzY9RoI6Mc7h72I0J-21">
          <mxGeometry y="20" width="549" height="100" as="geometry" />
        </mxCell>
        <mxCell id="pqmOzY9RoI6Mc7h72I0J-23" value="✕" style="text;strokeColor=none;fillColor=none;align=center;verticalAlign=middle;spacingLeft=4;spacingRight=4;overflow=hidden;points=[[0,0.5],[1,0.5]];portConstraint=eastwest;rotatable=0;whiteSpace=wrap;html=1;fontSize=50;fontStyle=0" vertex="1" parent="pqmOzY9RoI6Mc7h72I0J-21">
          <mxGeometry y="120" width="549" height="100" as="geometry" />
        </mxCell>
        <mxCell id="pqmOzY9RoI6Mc7h72I0J-24" value="" style="rounded=0;whiteSpace=wrap;html=1;" vertex="1" parent="pqmOzY9RoI6Mc7h72I0J-18">
          <mxGeometry y="335" width="549" height="15" as="geometry" />
        </mxCell>
        <mxCell id="pqmOzY9RoI6Mc7h72I0J-25" value="&lt;span style=&quot;font-weight: 700;&quot;&gt;達成 or&amp;nbsp;未達成理由&lt;/span&gt;" style="swimlane;fontStyle=0;childLayout=stackLayout;horizontal=1;startSize=30;horizontalStack=0;resizeParent=1;resizeParentMax=0;resizeLast=0;collapsible=1;marginBottom=0;whiteSpace=wrap;html=1;" vertex="1" parent="pqmOzY9RoI6Mc7h72I0J-18">
          <mxGeometry y="350" width="549" height="60" as="geometry">
            <mxRectangle y="180" width="340" height="30" as="alternateBounds" />
          </mxGeometry>
        </mxCell>
        <mxCell id="pqmOzY9RoI6Mc7h72I0J-26" value="理由１" style="text;strokeColor=none;fillColor=none;align=center;verticalAlign=middle;spacingLeft=4;spacingRight=4;overflow=hidden;points=[[0,0.5],[1,0.5]];portConstraint=eastwest;rotatable=0;whiteSpace=wrap;html=1;" vertex="1" parent="pqmOzY9RoI6Mc7h72I0J-25">
          <mxGeometry y="30" width="549" height="30" as="geometry" />
        </mxCell>
      </root>
    </mxGraphModel>
  </diagram>
</mxfile>
